<?xml version="1.0" standalone="no"?>
<!DOCTYPE svg PUBLIC "-//W3C//DTD SVG 20010904//EN"
 "http://www.w3.org/TR/2001/REC-SVG-20010904/DTD/svg10.dtd">
<svg version="1.0" xmlns="http://www.w3.org/2000/svg"
 width="1611.000000pt" height="1611.000000pt" viewBox="0 0 1611.000000 1611.000000"
 preserveAspectRatio="xMidYMid meet">
<metadata>
Created by potrace 1.11, written by Peter Selinger 2001-2013
</metadata>
<g transform="translate(0.000000,1611.000000) scale(0.100000,-0.100000)"
fill="#000000" stroke="none">
<path d="M5685 13394 c-505 -33 -1024 -129 -1534 -285 -362 -111 -742 -255
-962 -365 -222 -111 -352 -196 -515 -336 -130 -112 -179 -186 -215 -325 -46
-181 -3 -360 111 -467 124 -116 288 -141 523 -82 143 37 247 83 424 188 401
241 719 388 1028 478 129 38 416 100 461 100 63 0 83 -61 38 -121 -67 -89
-154 -305 -190 -469 -28 -128 -26 -403 4 -523 83 -331 287 -559 605 -672 309
-110 692 -78 959 81 156 93 327 290 412 476 145 313 110 705 -98 1088 -28 52
-52 98 -54 101 -2 4 14 13 34 19 92 31 387 -35 694 -155 155 -60 501 -236 710
-359 530 -316 735 -375 948 -276 75 35 159 112 196 179 164 303 -278 856 -970
1213 -193 100 -325 155 -544 228 -374 124 -829 222 -1245 266 -134 14 -688 26
-820 18z"/>
<path d="M1760 11340 c-197 -47 -409 -248 -613 -580 -297 -487 -505 -1087
-626 -1815 -68 -408 -91 -674 -91 -1075 0 -707 117 -1326 372 -1965 125 -315
405 -838 557 -1044 148 -199 284 -257 545 -232 199 19 268 53 324 159 71 133
91 314 52 468 -28 111 -81 215 -202 399 -224 341 -360 636 -468 1018 -38 136
-120 509 -120 549 0 12 60 -14 248 -108 334 -168 454 -201 692 -191 146 6 243
29 364 85 231 109 420 293 511 498 126 284 99 725 -60 1010 -105 188 -285 347
-483 427 -134 55 -225 71 -387 71 -223 -1 -312 -25 -649 -175 -109 -49 -203
-89 -208 -89 -12 0 -2 75 32 250 80 403 225 751 499 1195 149 240 221 374 262
486 54 146 50 280 -12 401 -25 50 -129 159 -187 198 -91 60 -242 86 -352 60z"/>
<path d="M10262 9809 c-73 -37 -112 -115 -112 -228 0 -132 36 -189 190 -306
161 -122 198 -180 187 -296 -10 -109 -59 -159 -158 -159 -103 0 -157 67 -159
198 0 51 -1 52 -30 52 l-30 0 0 -66 c0 -91 17 -141 65 -190 43 -45 91 -64 161
-64 128 0 209 82 221 227 11 133 -31 207 -182 323 -174 135 -201 178 -193 302
6 74 21 104 71 142 37 27 127 27 165 -1 40 -28 72 -99 72 -155 l0 -48 36 0 37
0 -7 62 c-8 76 -44 158 -82 185 -69 48 -179 58 -252 22z"/>
<path d="M13594 9819 c-123 -20 -230 -101 -280 -212 -23 -52 -28 -76 -28 -147
-1 -75 3 -93 31 -152 59 -126 170 -214 299 -237 245 -44 470 193 426 450 -16
90 -49 154 -107 208 -56 52 -109 76 -195 90 -73 12 -75 12 -146 0z"/>
<path d="M3942 9808 c3 -7 56 -246 119 -530 l114 -518 51 0 c45 0 52 3 57 23
3 12 53 243 112 512 58 270 108 498 111 508 4 14 -1 17 -28 17 l-34 0 -104
-472 c-57 -260 -106 -478 -109 -485 -3 -6 -54 205 -112 470 l-106 482 -38 3
c-28 3 -36 0 -33 -10z"/>
<path d="M4820 9290 l0 -530 35 0 35 0 0 530 0 530 -35 0 -35 0 0 -530z"/>
<path d="M5230 9290 l0 -530 210 0 210 0 0 30 0 30 -175 0 -175 0 0 225 0 225
145 0 145 0 0 30 0 30 -145 0 -145 0 0 215 0 215 175 0 175 0 0 30 0 30 -210
0 -210 0 0 -530z"/>
<path d="M5940 9790 l0 -30 110 0 110 0 0 -500 0 -500 35 0 35 0 0 500 0 500
110 0 110 0 0 30 0 30 -255 0 -255 0 0 -30z"/>
<path d="M6740 9291 l0 -531 30 0 30 0 0 467 c0 257 4 463 8 458 5 -6 80 -216
168 -467 l159 -458 38 0 37 0 0 530 0 530 -30 0 -30 0 -2 -440 -3 -439 -156
437 -156 437 -46 3 -47 3 0 -530z"/>
<path d="M7756 9753 c-33 -145 -216 -983 -216 -988 0 -4 15 -5 32 -3 l33 3 24
118 24 117 167 0 167 0 22 -102 c32 -147 28 -138 67 -138 19 0 34 1 34 3 0 1
-54 238 -118 527 l-118 525 -51 3 -51 3 -16 -68z m143 -358 c39 -170 71 -316
71 -322 0 -10 -37 -13 -150 -13 -82 0 -150 3 -150 8 -1 25 146 650 151 644 4
-4 39 -146 78 -317z"/>
<path d="M8430 9290 l0 -530 30 0 30 0 1 463 c0 254 3 456 6 449 2 -7 53 -214
112 -460 l108 -447 35 -3 35 -3 31 128 c16 70 65 279 108 463 l79 334 3 -462
2 -462 35 0 35 0 0 530 0 530 -52 0 -53 0 -109 -465 c-61 -255 -111 -463 -112
-462 -2 1 -50 202 -109 447 -58 245 -108 453 -111 463 -4 13 -16 17 -55 17
l-49 0 0 -530z"/>
<path d="M9410 9290 l0 -530 210 0 210 0 0 30 0 30 -175 0 -175 0 0 225 0 225
145 0 145 0 0 30 0 30 -145 0 -145 0 0 215 0 215 175 0 175 0 0 30 0 30 -210
0 -210 0 0 -530z"/>
<path d="M10930 9290 l0 -530 210 0 210 0 0 30 0 30 -175 0 -175 0 0 225 0
225 145 0 145 0 0 30 0 30 -145 0 -145 0 0 215 0 215 175 0 175 0 0 30 0 30
-210 0 -210 0 0 -530z"/>
<path d="M11965 9342 c-182 -54 -246 -138 -245 -322 1 -92 15 -133 76 -221 51
-75 62 -81 179 -99 97 -16 182 -5 256 32 97 49 147 134 169 290 10 66 9 68
-26 127 -108 181 -240 243 -409 193z"/>
<path d="M12870 9141 c-262 -97 -411 -238 -476 -451 -47 -153 -54 -161 -141
-142 -129 29 -191 34 -303 28 -140 -7 -191 -19 -224 -50 -14 -13 -26 -26 -26
-29 0 -3 32 -17 70 -32 135 -51 233 -145 345 -327 32 -51 72 -113 90 -138 18
-25 60 -101 93 -170 60 -125 60 -125 201 -265 124 -123 152 -145 229 -184 151
-76 242 -98 294 -70 78 42 99 381 37 587 -30 97 -129 324 -216 493 -65 126
-76 155 -80 211 -10 123 38 234 121 283 47 28 116 33 153 12 44 -25 141 -127
156 -166 36 -88 58 -241 68 -469 16 -357 54 -531 162 -736 55 -104 121 -187
168 -211 45 -24 118 -19 161 10 63 43 188 242 233 371 58 166 95 426 95 664 0
182 13 268 50 347 53 114 159 203 241 203 74 -1 169 -72 184 -139 3 -16 2 -46
-4 -67 l-10 -37 30 29 c85 80 97 191 39 345 -14 40 -27 59 -43 63 -168 48
-271 60 -379 46 -158 -22 -267 -79 -409 -216 -118 -113 -124 -113 -234 4 -134
141 -247 196 -439 213 -61 5 -122 11 -136 13 -14 2 -59 -8 -100 -23z"/>
<path d="M5304 8435 c-27 -13 -59 -40 -72 -59 -48 -71 -52 -106 -52 -456 0
-350 4 -385 52 -456 30 -45 108 -84 167 -84 74 0 122 19 167 64 70 69 74 98
74 476 0 271 -3 336 -16 381 -40 135 -191 199 -320 134z m191 -64 c16 -9 38
-32 50 -51 19 -33 20 -51 20 -400 0 -349 -1 -367 -20 -400 -59 -99 -211 -99
-270 0 -19 33 -20 54 -23 377 -2 224 1 356 8 382 28 104 139 147 235 92z"/>
<path d="M7052 8439 c-73 -37 -112 -115 -112 -228 0 -132 36 -189 190 -306
161 -122 198 -180 187 -296 -10 -109 -59 -159 -158 -159 -103 0 -157 67 -159
198 0 51 -1 52 -30 52 l-30 0 0 -66 c0 -91 17 -141 65 -190 43 -45 91 -64 161
-64 128 0 209 82 221 227 11 133 -31 207 -182 323 -174 135 -201 178 -193 302
6 74 21 104 71 142 37 27 127 27 165 -1 40 -28 72 -99 72 -155 l0 -48 36 0 37
0 -7 62 c-8 76 -44 158 -82 185 -69 48 -179 58 -252 22z"/>
<path d="M7662 8439 c-73 -37 -112 -115 -112 -228 0 -132 36 -189 190 -306
161 -122 198 -180 187 -296 -10 -109 -59 -159 -158 -159 -103 0 -157 67 -159
198 0 51 -1 52 -30 52 l-30 0 0 -66 c0 -91 17 -141 65 -190 43 -45 91 -64 161
-64 128 0 209 82 221 227 11 133 -31 207 -182 323 -174 135 -201 178 -193 302
6 74 21 104 71 142 37 27 127 27 165 -1 40 -28 72 -99 72 -155 l0 -48 36 0 37
0 -7 62 c-8 76 -44 158 -82 185 -69 48 -179 58 -252 22z"/>
<path d="M8514 8435 c-27 -13 -59 -40 -72 -59 -48 -71 -52 -106 -52 -456 0
-350 4 -385 52 -456 30 -45 108 -84 167 -84 74 0 122 19 167 64 70 69 74 98
74 476 0 271 -3 336 -16 381 -40 135 -191 199 -320 134z m191 -64 c16 -9 38
-32 50 -51 19 -33 20 -51 20 -400 0 -349 -1 -367 -20 -400 -59 -99 -211 -99
-270 0 -19 33 -20 54 -23 377 -2 224 1 356 8 382 28 104 139 147 235 92z"/>
<path d="M11022 8439 c-73 -37 -112 -115 -112 -228 0 -132 36 -189 190 -306
161 -122 198 -180 187 -296 -10 -109 -59 -159 -158 -159 -103 0 -157 67 -159
198 0 51 -1 52 -30 52 l-30 0 0 -66 c0 -91 17 -141 65 -190 43 -45 91 -64 161
-64 128 0 209 82 221 227 11 133 -31 207 -182 323 -174 135 -201 178 -193 302
6 74 21 104 71 142 37 27 127 27 165 -1 40 -28 72 -99 72 -155 l0 -48 36 0 37
0 -7 62 c-8 76 -44 158 -82 185 -69 48 -179 58 -252 22z"/>
<path d="M3950 7920 l0 -530 35 0 35 0 0 220 0 220 93 0 c148 0 215 29 260
113 20 38 22 56 22 197 0 172 -10 209 -75 263 -45 38 -89 47 -237 47 l-133 0
0 -530z m303 450 c55 -26 72 -72 75 -205 2 -67 -1 -138 -7 -161 -22 -81 -90
-114 -237 -114 l-64 0 0 251 0 252 103 -5 c56 -3 114 -11 130 -18z"/>
<path d="M4550 7920 l0 -530 35 0 35 0 0 241 0 242 95 -6 c106 -6 156 -25 189
-70 19 -25 22 -48 27 -200 3 -95 9 -180 13 -189 6 -12 19 -18 43 -18 30 0 34
3 27 18 -4 9 -10 94 -14 187 -3 94 -10 179 -15 190 -18 43 -48 76 -87 96 l-41
21 40 18 c80 36 108 112 101 278 -9 210 -62 252 -315 252 l-133 0 0 -530z
m307 446 c57 -29 68 -64 68 -211 0 -110 -3 -135 -18 -159 -30 -46 -89 -66
-194 -66 l-93 0 0 231 0 232 103 -5 c68 -3 113 -10 134 -22z"/>
<path d="M5810 7920 l0 -530 35 0 35 0 0 240 0 240 140 0 140 0 0 30 0 30
-140 0 -140 0 0 230 0 230 165 0 165 0 0 30 0 30 -200 0 -200 0 0 -530z"/>
<path d="M6360 7920 l0 -530 210 0 210 0 0 30 0 30 -175 0 -175 0 0 225 0 225
145 0 145 0 0 30 0 30 -145 0 -145 0 0 215 0 215 175 0 175 0 0 30 0 30 -210
0 -210 0 0 -530z"/>
<path d="M8150 7920 l0 -530 35 0 35 0 0 530 0 530 -35 0 -35 0 0 -530z"/>
<path d="M9010 7921 l0 -531 30 0 30 0 0 467 c0 257 4 463 8 458 5 -6 80 -216
168 -467 l159 -458 38 0 37 0 0 530 0 530 -30 0 -30 0 -2 -440 -3 -439 -156
437 -156 437 -46 3 -47 3 0 -530z"/>
<path d="M9856 8383 c-33 -145 -216 -983 -216 -988 0 -4 15 -5 32 -3 l33 3 24
118 24 117 167 0 167 0 22 -102 c32 -147 28 -138 67 -138 19 0 34 1 34 3 0 1
-54 238 -118 527 l-118 525 -51 3 -51 3 -16 -68z m143 -358 c39 -170 71 -316
71 -322 0 -10 -37 -13 -150 -13 -82 0 -150 3 -150 8 -1 25 146 650 151 644 4
-4 39 -146 78 -317z"/>
<path d="M10360 7920 l0 -530 200 0 200 0 0 30 0 30 -165 0 -165 0 0 500 0
500 -35 0 -35 0 0 -530z"/>
<path d="M11658 6432 l-3 -698 -30 -60 c-26 -51 -38 -63 -88 -88 -45 -23 -75
-30 -137 -34 l-80 -5 0 -48 0 -49 70 0 c214 0 326 82 366 269 11 53 14 199 14
739 l0 672 -55 0 -54 0 -3 -698z"/>
<path d="M12305 7118 c-3 -7 -83 -375 -180 -818 -96 -443 -177 -815 -180 -827
-5 -22 -2 -23 44 -23 58 0 48 -23 102 223 l33 147 261 0 261 0 38 -167 c20
-93 39 -176 42 -185 4 -14 17 -18 60 -18 48 0 55 2 50 18 -2 9 -87 387 -187
840 l-182 822 -79 0 c-54 0 -80 -4 -83 -12z m204 -673 c65 -286 117 -523 114
-527 -2 -5 -109 -8 -238 -8 -129 0 -236 3 -238 8 -3 5 217 1013 234 1072 2 8
5 -4 128 -545z"/>
<path d="M13010 6290 l0 -840 55 0 55 0 0 345 0 345 135 0 c202 0 294 27 367
108 66 73 81 132 86 339 6 261 -13 354 -94 442 -76 85 -142 101 -409 101
l-195 0 0 -840z m438 725 c58 -17 110 -69 132 -132 18 -52 26 -383 10 -456
-15 -74 -59 -133 -118 -160 -40 -19 -69 -22 -199 -25 l-153 -4 0 396 0 396
138 0 c95 0 155 -5 190 -15z"/>
<path d="M14185 7118 c-3 -7 -83 -375 -180 -818 -96 -443 -177 -815 -180 -827
-5 -22 -2 -23 44 -23 58 0 48 -23 102 223 l33 147 261 0 261 0 38 -167 c20
-93 39 -176 42 -185 4 -14 17 -18 60 -18 48 0 55 2 50 18 -2 9 -87 387 -187
840 l-182 822 -79 0 c-54 0 -80 -4 -83 -12z m204 -673 c65 -286 117 -523 114
-527 -2 -5 -109 -8 -238 -8 -129 0 -236 3 -238 8 -3 5 217 1013 234 1072 2 8
5 -4 128 -545z"/>
<path d="M14900 6290 l0 -840 50 0 50 0 2 742 3 741 256 -739 256 -739 62 -3
61 -3 0 841 0 840 -50 0 -50 0 -2 -702 -3 -701 -245 699 -246 699 -72 3 -72 3
0 -841z"/>
<path d="M10730 6610 l0 -480 30 0 30 0 0 480 0 480 -30 0 -30 0 0 -480z"/>
<path d="M10890 6610 l0 -480 30 0 30 0 2 421 3 420 129 -368 c185 -528 161
-473 202 -473 l34 0 0 480 0 480 -30 0 -30 0 -2 -394 -3 -395 -140 394 -140
395 -42 0 -43 0 0 -480z"/>
</g>
</svg>
